<svg xmlns="http://www.w3.org/2000/svg" viewBox="0 0 192 192" width="192" height="192">
    <defs>
        <style>
            .cls-1 {
                fill: #22c55e;
            }
            .cls-2 {
                fill: none;
                stroke: #22c55e;
                stroke-linecap: round;
                stroke-linejoin: round;
                stroke-width: 12px;
            }
        </style>
    </defs>
    <title>logo</title>
    <g>
        <g>
            <path class="cls-1" d="M96,174.49c12.5,0,22.91,8.83,33.33,8.83,25,0,50-66.67,50-101.83a40.9,40.9,0,0,0-41.67-41.66c-18.5,0-33.33,12-41.66,16.66-8.34-4.66-23.17-16.66-41.67-16.66a40.89,40.89,0,0,0-41.67,39.83C12.66,116.65,37.66,183.32,62.67,183.32,73.09,183.32,83.5,174.49,96,174.49Z"/>
            <path class="cls-2" d="M70.83,12.5c8.34-16.67,25,0,45.84-16.67"/>
        </g>
    </g>
</svg>
